<svg version="1.1" id="Layer_1" xmlns="http://www.w3.org/2000/svg" xmlns:xlink="http://www.w3.org/1999/xlink" x="0px" y="0px"
	 width="100%" viewBox="0 0 1024 1024" enable-background="new 0 0 1024 1024" xml:space="preserve">
<path fill="#000000" opacity="1.000000" stroke="none" 
	d="
M379.979980,397.982666 
	C379.288940,401.167358 376.356262,401.723419 374.028381,402.684814 
	C368.605072,404.924652 366.108887,409.552399 363.387024,413.687775 
	C398.649811,390.792297 434.764679,369.101562 471.868164,346.598938 
	C463.437469,347.728943 458.683868,354.509338 450.686798,354.858032 
	C457.822479,347.221466 468.366486,344.808716 473.746124,336.181854 
	C475.747894,337.385437 475.804718,339.002777 476.380981,340.332520 
	C476.855011,341.426361 477.332611,342.593781 478.859436,342.183228 
	C480.163696,341.832489 480.700562,340.793732 480.665619,339.517212 
	C480.476562,332.604462 484.744385,326.633026 484.902405,319.394714 
	C484.994171,319.010620 484.968445,319.035950 484.968445,319.035950 
	C486.291443,317.992310 487.566437,316.894073 487.845581,315.107269 
	C488.515656,310.818359 490.697662,307.373749 493.909637,304.580109 
	C492.540527,301.844299 489.902893,301.472900 487.726105,300.376007 
	C485.645325,299.327545 484.162384,297.807892 484.818939,295.212677 
	C485.375122,293.014191 486.773071,291.692383 489.138428,291.908813 
	C491.694824,292.142761 492.716675,293.868896 493.208496,296.234406 
	C494.314972,301.556488 495.478302,302.165131 500.621368,300.089966 
	C503.643524,298.870575 506.694885,298.605103 509.930847,299.716644 
	C511.180237,295.954376 511.530548,292.901337 509.173492,289.901855 
	C507.181885,287.367462 507.742706,284.826935 510.067719,282.824829 
	C512.006775,281.155090 514.214355,281.503906 515.956360,283.158112 
	C518.226074,285.313385 518.397217,287.922485 516.300781,290.274841 
	C513.744446,293.143372 514.233643,296.313263 514.662354,299.994629 
	C519.901184,297.894592 524.314758,299.889221 528.631104,302.044891 
	C530.960205,300.275940 532.702087,298.503143 532.846558,295.473907 
	C532.955261,293.194550 534.456543,291.874298 536.831177,291.851990 
	C538.941833,291.832184 540.340027,292.998352 540.893433,294.921387 
	C541.593933,297.356171 540.499023,299.260315 538.322327,300.262421 
	C535.956726,301.351471 533.024292,301.487854 531.949280,304.906677 
	C536.661011,310.144928 539.014587,316.975220 540.952393,323.645050 
	C542.807190,330.029022 543.451355,336.710754 546.533997,342.372864 
	C550.090332,341.635162 549.385742,338.784027 551.719727,337.892761 
	C554.819641,338.747284 556.718750,341.960876 559.651245,343.707977 
	C591.271851,362.546906 622.718811,381.678314 654.402893,400.409180 
	C664.595398,406.434784 669.826782,414.432770 669.177612,426.517853 
	C668.668945,435.988220 669.111389,445.509430 669.120911,455.008057 
	C669.123413,457.532806 669.260559,460.095062 666.132019,461.164429 
	C664.354126,461.772186 664.375183,463.414185 664.374146,464.930664 
	C664.364563,479.095642 664.363403,493.260590 664.371460,507.425568 
	C664.372131,508.589417 664.248962,510.026459 665.430542,510.577576 
	C669.712830,512.574768 668.877686,516.120850 668.382690,519.602173 
	C666.403992,533.520630 666.353516,547.433594 668.149109,561.388123 
	C669.416748,571.239258 665.958496,578.818054 657.208191,584.144958 
	C629.758667,600.855469 602.484619,617.854492 575.018494,634.537231 
	C571.253784,636.823914 569.785095,639.314148 569.871948,643.724426 
	C570.183838,659.550720 570.116882,675.384949 570.127136,691.216187 
	C570.128906,693.989319 570.617981,696.163391 572.965149,698.199646 
	C576.784790,701.513489 576.762329,706.273499 573.551392,709.702881 
	C570.549438,712.909058 565.595276,713.034607 562.324829,709.987366 
	C558.905273,706.801147 558.833191,701.578491 562.268616,697.939209 
	C563.402405,696.738098 564.856018,695.875183 564.853333,693.914856 
	C564.830200,676.778137 564.840027,659.641479 564.840027,641.020569 
	C556.739685,645.947388 549.557068,650.241699 542.467834,654.685059 
	C540.883484,655.678101 541.140625,657.635620 541.135803,659.292297 
	C541.123718,663.458313 541.239868,667.626587 541.135254,671.789673 
	C541.088440,673.652832 541.700134,676.469360 538.923218,676.575439 
	C535.901245,676.690979 536.766418,673.777649 536.702026,672.002258 
	C536.552246,667.872925 536.654236,663.734375 536.654236,659.541870 
	C534.104919,659.312988 532.563049,660.660706 530.903442,661.682739 
	C527.930664,663.513672 525.183044,666.229248 521.958984,667.023743 
	C515.552856,668.602356 515.080627,672.581726 515.201721,678.082458 
	C515.538940,693.403625 515.361816,708.736023 515.393127,724.064026 
	C515.404541,729.662170 520.278442,734.643127 525.879395,734.744629 
	C529.044800,734.801941 532.218689,734.653931 535.376038,734.827942 
	C538.681519,735.010254 541.337219,734.369751 543.897095,731.843872 
	C547.252014,728.533447 552.068909,729.125671 554.983643,732.494507 
	C557.890930,735.854736 557.488281,740.673157 554.051819,743.644043 
	C550.670959,746.567139 546.011353,746.256775 542.851013,742.898071 
	C538.848389,738.644226 525.246216,737.798096 520.355164,741.498779 
	C514.220581,746.140442 512.192627,746.170166 505.954529,741.364258 
	C504.634705,740.347473 503.264343,740.160095 501.763702,740.142883 
	C498.097809,740.100769 494.428955,740.162720 490.766327,740.037231 
	C487.780945,739.934937 485.515564,740.679993 483.365387,743.123901 
	C479.855988,747.112732 474.837585,747.044861 471.449066,743.597778 
	C468.209961,740.302734 468.079071,735.802917 471.121765,732.348267 
	C474.260681,728.784424 479.329956,728.522583 483.051788,732.237854 
	C485.165497,734.347656 487.341095,735.102356 490.150452,734.994629 
	C493.646027,734.860413 497.149445,734.944641 500.647339,734.852783 
	C506.177124,734.707642 510.661469,730.273010 510.683136,724.760742 
	C510.750031,707.762878 510.683075,690.764404 510.797791,673.767029 
	C510.817413,670.858215 510.016785,669.141418 507.053070,668.262146 
	C500.919495,666.442322 496.352020,661.659973 490.375336,658.846497 
	C488.490692,662.486328 489.623657,666.165955 489.331329,669.675781 
	C489.207214,671.166382 489.329620,672.675903 489.254669,674.172607 
	C489.180176,675.660950 489.244171,677.468079 487.077606,677.378113 
	C485.046173,677.293762 484.933807,675.520447 484.903137,674.032776 
	C484.810364,669.535156 484.575073,665.018127 484.877838,660.541260 
	C485.150452,656.510132 483.677795,654.123413 480.150665,652.162903 
	C473.950531,648.716614 468.027985,644.770813 462.072479,641.085754 
	C460.585754,642.459229 461.018890,643.859741 461.021057,645.129028 
	C461.047180,660.460205 461.138916,675.791382 461.120789,691.122437 
	C461.117523,693.889954 461.528687,696.097656 463.766602,698.208740 
	C467.309570,701.550964 467.215729,706.829590 464.148621,709.845703 
	C460.963837,712.977478 456.129425,712.933411 452.920288,709.743469 
	C449.809570,706.651306 449.651245,701.405762 453.141602,698.107788 
	C455.492218,695.886780 456.022278,693.497070 456.022949,690.553284 
	C456.026398,674.895020 455.455841,659.218201 456.779694,643.593079 
	C457.161285,639.088928 455.337555,636.792053 451.685333,634.466614 
	C424.288361,617.023193 396.349945,600.468933 368.575378,583.648865 
	C360.748230,578.908813 357.179169,572.000244 356.998077,563.394348 
	C356.672058,547.903198 356.888275,532.400574 356.899475,516.902710 
	C356.900543,515.417175 356.538483,513.231934 357.810150,512.687805 
	C362.699707,510.595581 361.449768,506.471924 361.482391,502.815186 
	C361.580475,491.817413 361.682892,480.816589 361.514618,469.821106 
	C361.456116,465.996246 362.997009,461.429962 357.707672,459.165924 
	C356.472809,458.637360 356.874695,456.419220 356.876434,454.929840 
	C356.888550,444.597961 356.638611,434.255615 357.017670,423.936676 
	C357.562378,409.108948 363.014221,404.976654 379.642761,398.064148 
	C379.997742,397.998871 379.979980,397.982666 379.979980,397.982666 
M476.845245,547.358154 
	C476.848511,512.372437 476.770905,477.386292 476.949005,442.401459 
	C476.973511,437.587952 475.496582,436.143646 470.701782,436.172913 
	C441.048401,436.353790 411.393311,436.246063 381.738770,436.249695 
	C375.341370,436.250488 375.147797,436.451172 375.152283,443.158386 
	C375.174194,475.978210 375.201752,508.798065 375.252441,541.617859 
	C375.272766,554.765564 375.304413,554.918823 388.349701,554.717712 
	C400.416901,554.531677 399.568298,557.479370 399.607605,543.180176 
	C399.678162,517.526550 399.642578,491.872620 399.626282,466.218811 
	C399.624390,463.247437 399.465057,460.552582 403.822937,460.589874 
	C418.815521,460.718292 433.809998,460.664490 448.803497,460.613434 
	C451.570526,460.604004 452.640808,461.736023 452.599548,464.512726 
	C452.451294,474.494476 452.297913,484.480804 452.461487,494.460266 
	C452.528839,498.569397 451.100403,500.061066 446.980927,500.000366 
	C434.655426,499.818756 422.325592,499.891632 409.997772,499.942963 
	C407.749084,499.952301 405.355499,499.402496 403.078156,501.007446 
	C403.333557,501.637634 403.423981,502.349945 403.822388,502.770477 
	C409.890991,509.176025 416.012115,515.531799 422.090790,521.927856 
	C423.627228,523.544434 425.529114,523.724182 427.584900,523.708557 
	C433.582123,523.663147 439.579895,523.671997 445.577423,523.687134 
	C452.313660,523.704163 452.322662,523.717285 452.336212,530.203979 
	C452.349762,536.701294 452.543060,543.207031 452.271362,549.692932 
	C452.102356,553.727905 453.680695,555.010254 457.509766,554.804138 
	C461.829193,554.571716 466.199188,554.419617 470.494080,554.812744 
	C475.636383,555.283569 477.623413,553.307861 476.845245,547.358154 
M594.832275,552.229431 
	C599.419617,549.204041 603.909973,546.015503 608.628784,543.211365 
	C611.705200,541.383179 612.924744,539.124146 612.890381,535.518677 
	C612.742676,520.031555 612.637695,504.537476 612.976013,489.055939 
	C613.092224,483.738831 611.448608,480.108154 607.525696,476.530090 
	C602.316467,471.778931 597.898376,466.160370 593.122986,460.895325 
	C594.228333,459.942383 596.135620,460.635529 597.865540,460.628265 
	C613.686951,460.561890 629.509216,460.508545 645.330200,460.609344 
	C650.126099,460.639893 652.384521,458.946503 651.912231,453.834412 
	C651.546021,449.870544 651.611084,445.832397 651.877869,441.853668 
	C652.177063,437.391937 650.260498,436.107758 646.008301,436.165405 
	C631.354858,436.364075 616.697327,436.278015 602.041382,436.276428 
	C586.219604,436.274719 570.396667,436.346771 554.576904,436.160004 
	C550.485474,436.111694 548.810181,437.444611 549.051636,441.612213 
	C549.301697,445.927826 549.276062,450.277618 549.059937,454.596893 
	C548.852600,458.740112 550.604004,460.192200 554.650452,460.111664 
	C563.806946,459.929443 572.969360,460.009521 582.129150,460.046906 
	C588.763428,460.073944 589.099365,460.433716 589.106323,467.202911 
	C589.133667,493.850067 589.123596,520.497314 589.185120,547.144348 
	C589.190308,549.393066 588.580017,551.797241 590.034424,553.829041 
	C591.841248,554.513367 592.955444,553.273376 594.832275,552.229431 
M523.706604,522.437988 
	C523.705688,504.625092 523.691345,486.812195 523.708862,468.999298 
	C523.719055,458.657501 523.020630,459.604431 532.678223,459.717651 
	C536.427246,459.761597 538.284058,458.501312 538.065674,454.517609 
	C537.874634,451.032318 537.903625,447.522125 538.066101,444.033661 
	C538.247192,440.145996 536.500977,438.678772 532.709534,438.740692 
	C522.059753,438.914703 511.406830,438.883636 500.755798,438.996765 
	C487.706848,439.135345 489.362396,437.500519 489.344604,450.447632 
	C489.332153,459.489288 487.366364,460.032501 498.357056,459.400421 
	C503.321869,459.114899 504.513641,461.027802 504.453644,465.712463 
	C504.221405,483.855255 504.356171,502.002899 504.378357,520.148743 
	C504.390930,530.450867 504.416992,530.557617 493.941681,531.050354 
	C490.508453,531.211853 489.180176,532.582153 489.294495,535.932556 
	C489.430664,539.923157 489.431763,543.926575 489.277924,547.916199 
	C489.153931,551.132812 490.627319,552.522766 493.694366,552.526611 
	C506.678802,552.542908 519.663269,552.574829 532.647705,552.557983 
	C536.217224,552.553345 538.232422,551.070679 537.939819,547.084106 
	C537.708923,543.938904 537.720093,540.746216 537.971497,537.602356 
	C538.347229,532.903748 536.600769,531.055664 531.711853,531.200134 
	C523.764343,531.434937 523.756714,531.175720 523.706604,522.437988 
M493.173981,310.587067 
	C492.672943,311.456421 492.007965,312.422638 493.027161,313.249939 
	C493.974365,314.018768 494.883057,313.588013 495.529327,312.627960 
	C496.265472,311.534363 496.824310,310.257812 497.756134,309.372101 
	C500.053314,307.188507 502.962524,307.277924 505.755310,307.971466 
	C507.342621,308.365631 508.193024,309.636353 507.217834,311.401154 
	C500.965210,310.694214 500.997314,308.315887 498.229004,317.759827 
	C490.418213,317.376587 488.860657,318.340912 488.178436,323.982300 
	C494.063385,322.465881 494.063385,322.465881 495.966583,325.366302 
	C495.386292,325.660126 494.859222,326.065948 494.269379,326.204590 
	C486.899597,327.936523 483.325928,332.973755 484.285339,340.339661 
	C484.891449,344.992981 489.078888,347.579498 493.192505,345.599854 
	C496.273712,344.117004 497.701721,344.738098 498.374390,348.167908 
	C499.030121,351.511353 501.198944,352.463165 504.322479,350.812744 
	C505.292145,350.300446 506.110931,349.166138 507.895813,350.207214 
	C508.093170,352.308899 507.338654,354.388123 505.126038,355.078857 
	C502.241577,355.979340 499.124237,356.027405 496.855804,353.388397 
	C494.934906,351.153748 493.009033,349.339874 489.511078,351.112244 
	C490.892365,356.376831 496.425385,356.774231 499.268097,360.087341 
	C501.285187,362.438202 504.420624,362.284332 507.178558,361.110504 
	C509.993591,359.912323 510.692047,357.436523 510.687256,354.533447 
	C510.662262,339.384796 510.769409,324.235809 510.719818,309.087341 
	C510.699219,302.794312 506.014099,300.249664 500.639008,303.741455 
	C498.025909,305.439026 495.915527,307.910461 493.173981,310.587067 
M523.274170,307.752197 
	C528.158630,307.350067 528.886230,313.226471 533.321838,314.934387 
	C532.826782,309.985443 529.491272,307.999237 526.976013,305.620026 
	C524.402100,303.185303 521.245178,301.110443 517.528625,303.060791 
	C514.128906,304.844849 514.582581,308.398834 514.711304,311.512970 
	C515.310303,326.000397 515.321228,340.482819 514.607849,354.964478 
	C514.381897,359.552521 517.126099,362.675720 521.627441,361.642761 
	C527.440796,360.308777 531.718323,356.189087 535.425171,351.613617 
	C535.508057,351.511322 535.159912,351.059937 534.932800,350.614319 
	C532.663269,349.749847 531.255188,351.441376 529.860840,352.722961 
	C528.081909,354.358063 526.134399,355.561981 523.757996,355.892029 
	C519.816589,356.439392 517.458801,353.874664 518.168579,349.464813 
	C523.318298,352.551514 527.281921,352.755310 528.182312,345.375580 
	C528.369141,343.843872 530.167786,344.145844 531.513916,344.833923 
	C535.689453,346.968201 539.276917,345.491150 540.487000,341.213562 
	C542.172485,335.254944 538.400635,328.289093 532.458923,326.462463 
	C531.401123,326.137329 530.029419,326.460449 529.602051,324.598816 
	C532.020020,320.860229 535.017334,325.037903 537.736877,324.578796 
	C537.547791,320.753021 535.621521,318.474487 532.344177,318.056183 
	C528.911560,317.618042 525.383545,319.019501 523.914551,322.028290 
	C522.943176,324.017792 518.851440,324.896851 521.003357,328.102509 
	C523.074402,331.187775 526.023254,330.736176 529.018921,329.485413 
	C529.293640,329.370728 529.824646,329.869934 530.578003,330.261505 
	C528.782166,332.882507 527.378052,335.356171 527.746765,338.798981 
	C527.972473,340.906097 525.523621,341.715302 523.319031,340.536682 
	C522.921509,337.893036 525.383362,334.768005 521.184204,333.163452 
	C517.531372,331.767639 515.710327,327.880127 517.735535,325.104401 
	C519.900940,322.136627 519.029541,315.206116 525.914062,317.114075 
	C527.023376,315.556549 526.768372,314.214172 525.827148,312.849213 
	C523.797058,309.905151 520.529846,312.291168 518.052185,311.239594 
	C517.952026,307.805481 520.245850,307.824707 523.274170,307.752197 
M377.520264,566.018066 
	C376.700043,568.531006 379.050690,568.494324 380.237000,569.230652 
	C405.410248,584.854980 430.572876,600.497131 455.821625,615.998901 
	C473.266815,626.709717 490.830231,637.228271 508.364075,647.794128 
	C510.730927,649.220398 513.197998,651.165771 516.236816,647.849915 
	C514.604858,646.332214 514.437073,644.317444 514.454285,642.123535 
	C514.581055,625.971008 514.627319,609.817444 514.594421,593.664368 
	C514.589050,591.026001 514.068237,588.388733 513.785706,585.750916 
	C513.181091,585.789612 512.576416,585.828308 511.971741,585.867004 
	C511.971741,605.942017 511.971741,626.017029 511.971741,647.211731 
	C505.437683,643.287048 500.166626,640.174805 494.956268,636.964111 
	C492.958282,635.732788 492.928040,633.585144 493.125092,631.585449 
	C494.238708,620.284546 493.234802,608.929138 493.987854,597.650818 
	C494.272888,593.382019 490.876709,590.593384 491.246613,586.577759 
	C491.332977,585.640320 489.971527,585.148193 488.877075,585.276917 
	C487.727478,585.411987 487.168823,586.214294 486.923981,587.259033 
	C486.460846,589.235535 486.986420,591.248840 488.542694,592.204834 
	C492.285583,594.504028 492.040588,597.924622 491.768768,601.443237 
	C491.049194,610.758118 491.327637,620.078308 491.571594,629.398071 
	C491.605591,630.697876 492.200500,632.039490 491.046448,633.195312 
	C489.195587,633.800842 487.881165,632.578003 486.501953,631.736084 
	C477.549713,626.270813 468.626556,620.757996 459.683746,615.277344 
	C432.575439,598.663940 405.728088,581.617981 377.520264,566.018066 
M537.139893,433.502167 
	C538.197937,431.296967 537.888611,428.918945 537.828552,426.628998 
	C537.569702,416.760864 540.622070,413.432281 526.073975,414.916931 
	C524.920898,415.034607 523.746216,414.969818 522.582397,414.947052 
	C513.606689,414.771545 504.629883,414.632507 495.656189,414.381775 
	C491.504822,414.265808 489.439758,416.172485 489.384888,420.276947 
	C489.338165,423.769196 489.449463,427.266235 489.307800,430.753723 
	C489.192963,433.580811 490.472931,434.615906 493.168732,434.588440 
	C497.991394,434.539246 502.818665,434.755707 507.638367,434.635315 
	C517.258362,434.395111 526.902283,435.341461 537.139893,433.502167 
M529.935608,592.927246 
	C532.127930,594.240723 532.251770,596.362427 532.246460,598.600952 
	C532.220703,609.589478 532.108459,620.580566 532.310242,631.565430 
	C532.378052,635.257385 530.898621,637.366028 527.822266,639.095764 
	C522.475647,642.101685 521.290283,643.298889 519.954651,646.671387 
	C546.695312,630.122864 573.436035,613.574402 600.176697,597.025879 
	C599.875488,596.540833 599.574280,596.055786 599.273071,595.570740 
	C577.774414,607.470825 557.493408,621.464905 536.341614,633.664429 
	C534.509277,631.414185 534.881042,629.686279 534.872009,628.059570 
	C534.831360,620.734070 534.352051,613.365601 534.976746,606.093933 
	C535.668701,598.039185 534.243286,591.228394 527.256958,586.221436 
	C525.531677,589.010437 528.033875,590.570068 529.935608,592.927246 
M637.422668,395.125702 
	C610.247742,378.747559 583.072754,362.369446 555.897827,345.991333 
	C555.644043,346.418915 555.390259,346.846497 555.136536,347.274078 
	C591.268982,369.049377 627.562927,390.565979 663.443665,414.116058 
	C656.698059,404.881409 646.680847,401.102875 637.422668,395.125702 
M480.484558,736.782288 
	C479.314911,734.562500 477.631897,733.585449 475.306366,735.002869 
	C474.166138,735.697815 473.400726,736.910034 473.756287,738.344849 
	C474.137451,739.882935 475.244141,741.128357 476.798492,741.149780 
	C479.056427,741.180969 480.313477,739.713318 480.484558,736.782288 
M456.192108,706.560974 
	C458.174713,708.133972 459.895905,707.674438 461.194000,705.710693 
	C462.098572,704.342163 461.898743,702.866943 460.750946,701.646484 
	C459.782867,700.617188 458.515015,699.953674 457.240509,700.812012 
	C455.352020,702.083740 453.980164,703.712036 456.192108,706.560974 
M570.413818,705.644287 
	C571.314819,703.491760 570.996704,701.743225 568.689270,700.747253 
	C566.993530,700.015320 565.801636,700.873596 564.916199,702.210083 
	C563.984436,703.616394 564.091431,705.040466 565.276306,706.276611 
	C566.848389,707.916748 568.442810,707.792725 570.413818,705.644287 
M551.148438,739.766846 
	C552.569580,738.193848 553.027527,736.612366 551.128845,735.066711 
	C549.974182,734.126709 548.637390,733.981689 547.416870,734.764465 
	C546.027161,735.655640 545.417480,737.042603 546.106995,738.653625 
	C547.010193,740.763977 548.628845,741.098450 551.148438,739.766846 
z"/>
<path fill="#000000" opacity="1.000000" stroke="none" 
	d="
M475.756958,708.501953 
	C480.291046,708.111572 484.422058,707.902893 488.553040,707.694275 
	C488.556030,707.583923 488.559021,707.473633 488.561981,707.363342 
	C485.184387,707.363342 481.803894,707.276855 478.430084,707.389893 
	C475.572876,707.485596 473.986481,706.393738 473.999023,703.409973 
	C474.027466,696.656067 474.064606,689.902100 474.085815,683.148193 
	C474.095154,680.170959 475.739594,679.055115 478.526215,679.070007 
	C484.345642,679.101135 490.165405,679.080078 495.985016,679.079956 
	C499.018524,679.079895 500.459412,680.379395 500.423279,683.627136 
	C500.299622,694.741577 500.279846,705.859070 500.401917,716.973389 
	C500.442261,720.646667 498.875336,722.236816 495.353638,722.015259 
	C491.996246,721.804077 489.854004,722.736938 490.071747,726.652100 
	C490.159149,728.223450 489.546082,729.789795 487.616669,729.763794 
	C485.806946,729.739441 485.016510,728.334045 484.978607,726.706299 
	C484.911957,723.843018 484.180450,722.123962 480.724060,722.016235 
	C474.031250,721.807373 473.788422,721.389709 473.938965,714.779419 
	C473.986786,712.680664 473.504700,710.391846 475.756958,708.501953 
z"/>
<path fill="#000000" opacity="1.000000" stroke="none" 
	d="
M369.393341,604.658203 
	C361.432556,599.734985 353.839111,594.905884 346.100250,590.322327 
	C343.013092,588.493835 341.784637,586.220947 341.848450,582.609131 
	C342.072113,569.947205 341.945465,557.279358 342.127289,544.616211 
	C342.161224,542.253052 341.699219,540.683350 339.800690,539.058167 
	C336.087769,535.880066 335.872711,531.160645 338.827728,528.027710 
	C341.062256,525.658630 347.483276,526.250122 350.178223,529.073242 
	C352.903748,531.928345 352.676392,536.157104 349.093475,539.158447 
	C346.840088,541.046082 346.641815,542.947815 346.706421,545.659912 
	C346.988098,557.484741 347.053497,569.320374 346.867706,581.146851 
	C346.818390,584.284729 347.889069,585.963745 350.426575,587.521362 
	C373.710022,601.813721 396.944519,616.186035 420.151337,630.602600 
	C422.298737,631.936707 424.219574,632.265625 426.710846,631.565369 
	C431.473206,630.226868 435.503937,632.647888 436.776337,637.172485 
	C437.856720,641.014221 435.527557,645.093262 431.659515,646.133423 
	C426.882599,647.417969 422.520660,645.407959 421.543823,640.603638 
	C420.779022,636.842468 418.624695,634.858704 415.714661,633.077209 
	C400.368530,623.682556 385.038177,614.262207 369.393341,604.658203 
M341.255646,533.436523 
	C341.946564,536.744141 344.027710,537.464355 346.687103,535.876831 
	C349.039185,534.472839 349.347137,532.193787 347.785004,529.912354 
	C345.850403,527.086975 343.468628,528.126221 341.255646,533.436523 
M428.076263,641.670715 
	C430.370209,642.112549 432.070282,641.469116 432.544830,638.986084 
	C432.828979,637.499573 432.038971,636.371338 430.758148,635.730408 
	C429.057678,634.879395 427.492950,635.209595 426.360413,636.787048 
	C425.001587,638.679626 425.601379,640.203247 428.076263,641.670715 
z"/>
<path fill="#000000" opacity="1.000000" stroke="none" 
	d="
M619.530273,627.588989 
	C616.250183,629.620667 613.280579,631.460876 610.301147,633.285217 
	C607.420227,635.049194 605.154541,636.845154 604.775330,640.865601 
	C604.359070,645.278320 599.696960,647.605530 595.273560,646.535950 
	C590.881836,645.473999 587.997070,640.703186 589.249634,636.573792 
	C590.540833,632.317017 594.656433,629.966797 599.077942,631.508789 
	C601.624695,632.396912 603.388855,631.865417 605.520813,630.556824 
	C628.358093,616.539734 651.201538,602.530701 674.175903,588.740540 
	C678.185181,586.333984 680.088928,583.659424 679.963745,578.839905 
	C679.661316,567.194885 679.623413,555.529541 679.992188,543.888611 
	C680.105774,540.304688 676.431580,538.807434 676.481201,535.048523 
	C679.450195,536.406860 682.236389,538.353088 684.840942,535.415833 
	C686.081055,534.017395 686.140625,532.271301 684.929199,530.830872 
	C681.389099,526.621643 678.931458,531.489990 675.710876,532.612366 
	C675.165771,528.961426 676.357849,526.913940 679.223633,525.889343 
	C682.799438,524.610962 685.916748,525.616089 688.056580,528.608337 
	C690.012878,531.343872 691.040527,535.186279 688.154724,537.257385 
	C683.192078,540.818909 684.091675,545.484375 684.118469,550.204163 
	C684.179871,561.023560 684.119629,571.845703 684.367065,582.660828 
	C684.448364,586.213745 683.399292,588.481018 680.271057,590.376770 
	C660.068420,602.619385 639.969421,615.032959 619.530273,627.588989 
M596.003357,642.176697 
	C598.699402,642.567749 600.064575,641.054810 600.418762,638.690613 
	C600.630737,637.275696 599.477539,636.252319 598.236267,635.681213 
	C596.682312,634.966370 595.296143,635.440247 594.330322,636.809570 
	C592.894043,638.845886 593.539673,640.516418 596.003357,642.176697 
z"/>
<path fill="#000000" opacity="1.000000" stroke="none" 
	d="
M526.112732,695.392761 
	C531.359741,692.567322 536.725159,693.962830 541.927612,693.873169 
	C552.740784,693.686646 552.398987,691.634033 552.241394,704.687500 
	C552.193481,708.656433 552.143127,712.633911 552.343506,716.594849 
	C552.544800,720.574524 551.035767,722.634338 546.893616,722.259583 
	C543.406189,721.944153 540.984009,722.750305 541.195557,726.978088 
	C541.277405,728.614258 540.531128,730.024719 538.586121,729.858398 
	C536.852600,729.710205 536.639771,728.236328 536.684570,726.867432 
	C536.808411,723.083313 534.718262,721.961304 531.331116,722.143982 
	C527.155640,722.369385 525.401367,720.497314 525.615112,716.165833 
	C525.949219,709.393677 525.841736,702.599792 526.112732,695.392761 
z"/>
<path fill="#000000" opacity="1.000000" stroke="none" 
	d="
M525.747620,683.351440 
	C525.696899,680.318115 527.303772,679.287231 529.537537,679.281799 
	C535.823792,679.266357 542.110229,679.426392 548.396912,679.477234 
	C551.419739,679.501709 552.480835,681.125000 552.302185,683.938354 
	C552.228699,685.095398 552.195679,686.275452 552.334839,687.421875 
	C552.851135,691.675293 551.237183,693.521729 546.763245,693.229431 
	C541.967407,692.916138 537.137207,693.140137 532.322083,693.108215 
	C525.877991,693.065491 525.721863,692.896606 525.710022,686.289978 
	C525.708496,685.459778 525.725647,684.629639 525.747620,683.351440 
z"/>
<path fill="#000000" opacity="1.000000" stroke="none" 
	d="
M485.008667,319.000427 
	C480.894562,316.252777 476.885010,314.859528 472.428436,318.693420 
	C470.857666,320.044678 468.579865,319.392639 467.090851,317.693115 
	C465.650574,316.049164 465.394867,314.126343 466.368622,312.161896 
	C467.327179,310.228027 469.122681,308.557739 471.080505,309.487030 
	C474.748169,311.227875 478.578339,312.387970 482.331726,313.820587 
	C484.011810,314.461761 484.912537,316.309875 484.957031,318.667816 
	C484.968445,319.035950 484.994171,319.010620 485.008667,319.000427 
z"/>
<path fill="#000000" opacity="1.000000" stroke="none" 
	d="
M550.680420,317.549011 
	C548.059265,315.087219 544.843994,318.487396 542.539673,316.138123 
	C542.492249,315.748199 542.302612,315.253357 542.437012,315.138855 
	C545.890869,312.196442 550.498535,311.596375 554.362183,309.374969 
	C555.982605,308.443268 558.097900,310.276917 558.991516,312.234253 
	C559.882629,314.186066 559.763123,316.142609 558.097168,317.695953 
	C555.786011,319.850861 553.371887,319.677429 550.680420,317.549011 
z"/>
<path fill="#000000" opacity="1.000000" stroke="none" 
	d="
M408.823547,378.747986 
	C411.706024,377.169922 414.277740,375.768127 416.849457,374.366333 
	C417.172180,374.840607 417.494904,375.314880 417.817596,375.789154 
	C413.687195,378.707031 409.556793,381.624908 404.718781,385.042664 
	C404.569183,381.219727 406.665680,380.156860 408.823547,378.747986 
z"/>
<path fill="#000000" opacity="1.000000" stroke="none" 
	d="
M396.382019,386.267761 
	C398.032898,385.258118 399.348175,384.079865 401.370392,385.177002 
	C400.392731,389.182800 396.869873,389.126556 394.085663,390.796844 
	C393.531860,388.104401 395.229156,387.537964 396.382019,386.267761 
z"/>
<path fill="#000000" opacity="1.000000" stroke="none" 
	d="
M427.670288,367.938232 
	C431.120697,366.632843 433.281219,363.365143 438.268951,363.130188 
	C434.434387,366.349670 431.672913,369.107025 427.353271,369.373413 
	C427.274780,369.378265 427.089447,369.112091 427.111328,369.004364 
	C427.173340,368.699249 427.317108,368.410736 427.670288,367.938232 
z"/>
<path fill="#000000" opacity="1.000000" stroke="none" 
	d="
M380.004456,398.008362 
	C382.370697,395.149536 384.917938,392.616150 389.801849,392.189209 
	C387.535126,396.705139 383.919067,396.925110 380.349670,397.917877 
	C379.979980,397.982666 379.997742,397.998871 380.004456,398.008362 
z"/>
<path fill="#000000" opacity="1.000000" stroke="none" 
	d="
M524.314453,542.569214 
	C527.274780,542.630798 529.772339,542.643677 532.266724,542.737854 
	C533.546875,542.786194 534.583252,543.344055 534.609985,544.788208 
	C534.638000,546.302246 533.430420,546.820862 532.256714,546.830688 
	C523.438599,546.904724 514.619446,546.924622 505.801270,546.861938 
	C504.373871,546.851746 503.161499,546.022278 503.370300,544.336670 
	C503.579742,542.645508 505.098816,542.385681 506.400055,542.293701 
	C512.220032,541.882080 518.041748,541.927917 524.314453,542.569214 
z"/>
<path fill="#000000" opacity="1.000000" stroke="none" 
	d="
M523.713379,449.041931 
	C526.792419,449.148865 529.455688,449.152863 532.098145,449.389374 
	C533.630188,449.526520 535.148926,450.100128 535.011169,452.096680 
	C534.890686,453.841980 533.478821,454.176239 532.111450,454.182220 
	C523.782959,454.218567 515.453979,454.213043 507.125458,454.166016 
	C505.542938,454.157074 503.886688,453.690338 504.102631,451.704376 
	C504.323853,449.669922 506.097778,449.004059 507.844879,449.242218 
	C513.017212,449.947357 518.147766,449.557037 523.713379,449.041931 
z"/>
<path fill="#000000" opacity="1.000000" stroke="none" 
	d="
M517.994873,540.743591 
	C513.929993,540.414856 510.309479,540.380737 506.665863,540.746887 
	C505.177734,540.896545 503.467865,540.511780 503.381622,538.544006 
	C503.293610,536.536072 504.982727,536.150696 506.487427,536.139099 
	C514.759155,536.075134 523.032043,536.069885 531.303528,536.147705 
	C532.725464,536.161133 534.619507,536.279175 534.636780,538.294495 
	C534.654907,540.409119 532.766113,540.253845 531.320984,540.312805 
	C527.024902,540.488159 522.726074,540.594666 517.994873,540.743591 
z"/>
<path fill="#000000" opacity="1.000000" stroke="none" 
	d="
M534.155029,444.246979 
	C535.464417,446.974365 533.635559,447.495148 531.996338,447.658051 
	C523.733215,448.479034 515.448547,448.022980 507.175598,447.762482 
	C505.777313,447.718445 503.904602,447.271851 504.238098,445.206909 
	C504.516632,443.482422 506.225006,443.706177 507.491608,443.714752 
	C516.263367,443.774200 525.034729,443.891785 534.155029,444.246979 
z"/>
<path fill="#000000" opacity="1.000000" stroke="none" 
	d="
M498.685303,448.197662 
	C498.237579,451.226196 496.540222,451.802246 494.406403,450.648499 
	C493.111328,449.948242 492.865601,448.210876 493.828949,447.187836 
	C495.486664,445.427521 497.302460,445.532013 498.685303,448.197662 
z"/>
<path fill="#000000" opacity="1.000000" stroke="none" 
	d="
M498.148499,541.794250 
	C496.731201,544.386658 495.097900,544.649292 493.533203,542.525574 
	C492.647430,541.323425 492.923615,539.857239 494.370483,539.243286 
	C496.375305,538.392517 497.893646,538.944336 498.148499,541.794250 
z"/>
<path fill="#000000" opacity="1.000000" stroke="none" 
	d="
M503.297699,317.353699 
	C504.888000,319.717041 505.196075,322.215912 507.234406,324.280273 
	C509.866394,326.945923 508.170868,331.401489 504.177277,333.763397 
	C502.679657,334.649139 501.120605,335.253448 501.535034,337.384644 
	C501.908569,339.305756 503.271576,339.179749 504.903534,339.358826 
	C508.048065,339.703827 508.351898,341.703278 507.024902,344.212006 
	C499.384247,343.058746 497.712646,336.786163 495.191132,331.189026 
	C496.290283,329.123199 497.979309,330.252411 499.503479,330.537872 
	C501.259674,330.866760 502.816559,330.649353 503.943024,329.086212 
	C505.202698,327.338165 504.219238,326.064941 503.175690,324.648438 
	C502.300629,323.460724 501.602966,322.086792 501.096588,320.696991 
	C500.469147,318.974976 500.437286,317.324371 503.297699,317.353699 
z"/>
<path fill="#000000" opacity="1.000000" stroke="none" 
	d="
M491.594971,335.451843 
	C492.559296,338.060608 491.736877,339.822052 489.973511,341.339539 
	C486.768494,337.857758 487.104736,336.514343 491.594971,335.451843 
z"/>
<path fill="#000000" opacity="1.000000" stroke="none" 
	d="
M533.414368,339.435425 
	C532.565613,337.718628 531.020752,336.317902 533.041443,334.844086 
	C534.001465,334.143860 534.991333,334.447540 535.540222,335.454620 
	C536.528198,337.267242 537.022339,339.372284 535.626282,340.995087 
	C534.779968,341.978882 534.034302,340.611786 533.414368,339.435425 
z"/>
<path fill="#000000" opacity="1.000000" stroke="none" 
	d="
M521.651855,342.634033 
	C520.469177,344.241089 519.303711,345.851990 517.736755,343.825562 
	C516.619812,342.381165 517.036072,340.287109 518.527466,339.577179 
	C520.807129,338.491943 521.528809,340.366119 521.651855,342.634033 
z"/>
<path fill="#000000" opacity="1.000000" stroke="none" 
	d="
M507.571777,425.059204 
	C515.618774,425.208710 523.229492,425.358246 530.839905,425.522675 
	C532.458557,425.557617 534.534668,425.198883 534.689697,427.537842 
	C534.843079,429.852142 532.820984,429.991425 531.165405,430.008606 
	C523.217651,430.091156 515.268982,430.112640 507.320648,430.110687 
	C505.603088,430.110260 503.813538,429.853485 503.695221,427.629730 
	C503.568390,425.246033 505.470459,425.234131 507.571777,425.059204 
z"/>
<path fill="#000000" opacity="1.000000" stroke="none" 
	d="
M522.974731,418.851929 
	C526.453308,418.910675 529.440674,418.908264 532.420959,419.053589 
	C533.623291,419.112244 534.782593,419.639191 534.773682,421.103760 
	C534.764771,422.565247 533.615112,423.103363 532.402100,423.112488 
	C523.945984,423.176178 515.522705,424.501556 507.051971,423.801239 
	C505.538757,423.676147 503.874664,423.253754 503.908142,421.309906 
	C503.948242,418.982971 505.906342,418.942291 507.547028,418.915619 
	C512.523987,418.834808 517.502625,418.863922 522.974731,418.851929 
z"/>
<path fill="#000000" opacity="1.000000" stroke="none" 
	d="
M498.465210,424.061462 
	C498.080719,427.011261 496.549316,427.345642 494.596375,426.125519 
	C493.444244,425.405701 493.398621,423.905670 494.178253,423.037201 
	C495.723785,421.315521 497.324646,421.430176 498.465210,424.061462 
z"/>
</svg>